<?xml version="1.0" encoding="UTF-8" standalone="no"?>
<svg
   version="1.1"
   preserveAspectRatio="xMidYMid meet"
   viewBox="344.5639097744361 330.27819548872174 111.73684210526318 91.21804511278197"
   width="53.87"
   height="43.61"
   id="svg6"
   sodipodi:docname="logo.svg"
   inkscape:version="1.3.2 (091e20ef0f, 2023-11-25, custom)"
   xmlns:inkscape="http://www.inkscape.org/namespaces/inkscape"
   xmlns:sodipodi="http://sodipodi.sourceforge.net/DTD/sodipodi-0.dtd"
   xmlns="http://www.w3.org/2000/svg"
   xmlns:svg="http://www.w3.org/2000/svg">
  <sodipodi:namedview
     id="namedview6"
     pagecolor="#ffffff"
     bordercolor="#000000"
     borderopacity="0.25"
     inkscape:showpageshadow="2"
     inkscape:pageopacity="0.0"
     inkscape:pagecheckerboard="0"
     inkscape:deskcolor="#d1d1d1"
     inkscape:zoom="20.499885"
     inkscape:cx="37.512405"
     inkscape:cy="26.29283"
     inkscape:window-width="2752"
     inkscape:window-height="1098"
     inkscape:window-x="0"
     inkscape:window-y="0"
     inkscape:window-maximized="1"
     inkscape:current-layer="svg6" />
  <defs
     id="defs4">
    <path
       d="M453.3 331.28L453.3 359.85L388.64 418.5L388.64 388.42L453.3 331.28Z"
       id="aFZf6T5ED" />
    <linearGradient
       id="gradientb2ThqnP5Op"
       gradientUnits="userSpaceOnUse"
       x1="420.97"
       y1="331.28"
       x2="420.97"
       y2="418.5">
      <stop
         style="stop-color: #06b6d4;stop-opacity: 1"
         offset="0%"
         id="stop1" />
      <stop
         style="stop-color: #67e8f9;stop-opacity: 1"
         offset="100%"
         id="stop2" />
    </linearGradient>
    <path
       d="M410.23 331.28L410.23 359.85L345.56 418.5L345.56 388.42L410.23 331.28Z"
       id="a9fehgwfM" />
    <linearGradient
       id="gradientk1wNV9Ostb"
       gradientUnits="userSpaceOnUse"
       x1="377.89"
       y1="331.28"
       x2="377.89"
       y2="418.5">
      <stop
         style="stop-color: #06b6d4;stop-opacity: 1"
         offset="0%"
         id="stop3" />
      <stop
         style="stop-color: #67e8f9;stop-opacity: 1"
         offset="100%"
         id="stop4" />
    </linearGradient>
  </defs>
  <path
     style="fill:#ff6600;stroke-width:0.0487808"
     d=""
     id="path22"
     transform="matrix(2.0916772,0,0,2.0916772,344.09301,330.2782)" />
  <path
     style="fill:none;stroke-width:0.0487808"
     d="m 0.74374071,34.795199 0.0123611,-6.985523 1.70732659,-1.50672 c 1.6555776,-1.461051 5.0162311,-4.431286 7.2158947,-6.377598 0.5922589,-0.524044 1.3731779,-1.21394 1.7353749,-1.533102 0.362197,-0.319161 1.573679,-1.388577 2.692181,-2.376479 1.118501,-0.987902 2.056921,-1.796185 2.085377,-1.796185 0.02846,0 0.05174,-0.01949 0.05174,-0.04332 0,-0.04346 0.728325,-0.697498 2.80903,-2.522517 0.614801,-0.539253 1.27557,-1.120963 1.468375,-1.292691 0.192805,-0.171727 0.969611,-0.8610147 1.726235,-1.5317502 2.64261,-2.3426341 5.878926,-5.2130222 6.435454,-5.7078011 0.308538,-0.274305 1.076835,-0.953544 1.707326,-1.5094199 l 1.146348,-1.01068348 0.0383,0.40661438 c 0.02106,0.2236379 0.02948,3.2545103 0.0187,6.7352723 -0.01543,4.983743 -0.03261,6.344344 -0.08085,6.402475 -0.04839,0.05831 -0.200929,0.07591 -0.726025,0.08378 l -0.664763,0.01 0.632567,0.02663 0.632566,0.02663 -1.251437,1.134153 -1.251437,1.134152 h -2.694156 c -1.481786,0 -2.677713,0.01646 -2.657614,0.03659 0.0201,0.02012 1.203103,0.04756 2.628902,0.06098 l 2.59236,0.02439 -0.957609,0.865859 -0.95761,0.865858 -0.894865,0.01045 -0.894866,0.01045 0.852733,0.02614 0.852734,0.02614 -2.657622,2.410197 c -3.405072,3.08806 -5.123443,4.646746 -8.03281,7.286336 l -2.350782,2.132801 h -1.011026 c -0.556064,0 -0.998912,0.01211 -0.984105,0.02692 0.01481,0.01481 0.439122,0.04224 0.942926,0.06098 l 0.916006,0.03406 -5.1416658,4.658563 C 5.6073929,37.659967 3.018598,40.008761 2.6824315,40.317299 1.3353654,41.553655 1.0505291,41.780722 0.84669023,41.780722 H 0.73137962 Z"
     id="path25"
     transform="matrix(2.0916772,0,0,2.0916772,344.09301,330.2782)" />
  <path
     id="path26"
     style="fill:none;stroke-width:0.0487808"
     transform="matrix(2.0916772,0,0,2.0916772,344.09301,330.2782)"
     d="m 31.17578,19.097654 -1.16211,1.029297 c -0.638383,0.566362 -1.202949,1.072337 -1.255859,1.123047 -0.09436,0.09041 0.05373,0.0918 7.685547,0.0918 h 0.414062 c 0.941912,-0.7444 1.88458,-1.487709 2.81836,-2.242188 -0.29278,-1.48e-4 -0.429,-0.002 -0.736328,-0.002 z m 9.27539,0.0039 c -0.927158,0.756964 -1.867149,1.498483 -2.80664,2.240234 h 1.25 c 0.181824,-0.131548 0.275815,-0.198983 0.505859,-0.365234 0.845073,-0.613081 1.680883,-1.23888 2.511719,-1.871094 -0.53199,-0.0012 -0.864335,-0.0033 -1.460938,-0.0039 z m 2.259766,0.0078 c -0.985998,0.754819 -1.977618,1.502681 -2.982422,2.232422 h 4.494141 l 1.193359,-1.078125 c 0.656324,-0.592507 1.214745,-1.096524 1.240235,-1.121094 0.01817,-0.01752 -1.689631,-0.02659 -3.945313,-0.0332 z" />
  <path
     style="fill:none;stroke-width:0.0487808"
     d="m 21.319156,28.012352 c 0.0018,-0.190717 0.02445,-0.226848 0.282784,-0.451222 0.33079,-0.287303 3.279213,-2.889487 5.471868,-4.829295 0.849143,-0.751224 2.265062,-2.00245 3.146487,-2.780504 0.881425,-0.778053 2.185955,-1.930498 2.898955,-2.56099 0.713,-0.630491 1.396441,-1.234153 1.518757,-1.341471 0.250776,-0.220026 3.913493,-3.458645 5.066227,-4.47962 L 40.45703,10.9025 h 5.869192 5.869193 v 1.602948 1.602947 l -0.451222,0.412727 c -0.248173,0.226999 -0.692687,0.630436 -0.987811,0.896525 -0.526705,0.474889 -1.202215,1.087675 -2.121963,1.924933 -0.254879,0.232019 -0.957322,0.8678 -1.560984,1.412846 -0.603662,0.545045 -1.196349,1.085083 -1.317081,1.200083 -0.120732,0.115 -0.724394,0.663408 -1.341471,1.218685 -0.617076,0.555277 -1.231714,1.111351 -1.365861,1.235722 -0.134147,0.12437 -0.58415,0.532712 -1.000006,0.907425 -0.854927,0.770347 -1.660647,1.501359 -2.341476,2.124373 -0.25488,0.233235 -0.729115,0.662834 -1.053855,0.954665 -0.324741,0.291831 -0.909576,0.821457 -1.299634,1.176946 l -0.709194,0.646345 h -7.663833 -7.663831 z"
     id="path27"
     transform="matrix(2.0916772,0,0,2.0916772,344.09301,330.2782)" />
  <path
     style="fill:#ff6600;stroke-width:0.102034"
     d="m 315.0388,401.83413 0.0259,-14.61146 3.57117,-3.15157 c 3.46294,-3.05605 10.49234,-9.26882 15.09332,-13.33988 1.23882,-1.09613 2.87225,-2.53917 3.62985,-3.20675 0.7576,-0.66758 3.29163,-2.90446 5.63117,-4.97083 2.33955,-2.06637 4.30242,-3.75704 4.36194,-3.75704 0.0595,0 0.10822,-0.0408 0.10822,-0.0906 0,-0.0909 1.52342,-1.45894 5.87559,-5.27629 1.28596,-1.12794 2.66808,-2.34469 3.07136,-2.70389 0.40329,-0.3592 2.02811,-1.80097 3.61073,-3.20393 5.52749,-4.90003 12.29681,-10.90396 13.46089,-11.93888 0.64536,-0.57375 2.25239,-1.9945 3.57118,-3.15722 l 2.39779,-2.11402 0.0801,0.85051 c 0.0441,0.46777 0.0617,6.80738 0.0391,14.08801 -0.0323,10.42438 -0.0682,13.27032 -0.16911,13.39191 -0.10122,0.12197 -0.42028,0.15878 -1.51861,0.17524 l -1.39047,0.0209 1.32313,0.0557 1.32312,0.0557 -2.64956,2.39613 c -1.45726,1.31787 -2.71843,2.46246 -2.80261,2.54355 -0.92862,0.89448 -4.08845,3.68216 -4.17373,3.68216 -0.0614,0 -0.11169,0.0439 -0.11169,0.0976 0,0.0537 -2.4909,2.35674 -5.53532,5.11788 -7.61294,6.90455 -11.04953,10.02184 -16.77849,15.21957 l -4.91707,4.46113 h -2.11474 c -1.16311,0 -2.0894,0.0253 -2.05843,0.0563 0.031,0.031 0.9185,0.0884 1.97229,0.12755 l 1.91599,0.0712 -10.7547,9.74421 c -5.9151,5.3592 -11.33002,10.27212 -12.03317,10.91748 -2.81763,2.58606 -3.41342,3.06101 -3.83978,3.06101 h -0.24119 z m 52.82825,-38.04352 c -2.30799,-0.0925 -5.40316,-0.0888 -4.79558,0.006 0.25253,0.0393 1.8366,0.0701 3.52016,0.0686 2.82598,-0.003 2.92391,-0.008 1.27542,-0.0743 z"
     id="path28" />
  <path
     style="fill:#ff6600;stroke-width:0.102034"
     d="m 385.26351,357.0396 14.61146,0.0259 3.15157,3.57117 c 3.05605,3.46294 9.26882,10.49234 13.33988,15.09332 1.09613,1.23882 2.53917,2.87225 3.20675,3.62985 0.66758,0.7576 2.90446,3.29163 4.97083,5.63117 2.06637,2.33955 3.75704,4.30242 3.75704,4.36194 0,0.0595 0.0408,0.10822 0.0906,0.10822 0.0909,0 1.45894,1.52342 5.27629,5.87559 1.12794,1.28596 2.34469,2.66808 2.70389,3.07136 0.3592,0.40329 1.80097,2.02811 3.20393,3.61073 4.90003,5.52749 10.90396,12.29681 11.93888,13.46089 0.57375,0.64536 1.9945,2.25239 3.15722,3.57118 l 2.11402,2.39779 -0.85051,0.0801 c -0.46777,0.0441 -6.80738,0.0617 -14.08801,0.0391 -10.42438,-0.0323 -13.27032,-0.0682 -13.39191,-0.16911 -0.12197,-0.10122 -0.15878,-0.42028 -0.17524,-1.51861 l -0.0209,-1.39047 -0.0557,1.32313 -0.0557,1.32312 -2.39613,-2.64956 c -1.31787,-1.45726 -2.46246,-2.71843 -2.54355,-2.80261 -0.89448,-0.92862 -3.68216,-4.08845 -3.68216,-4.17373 0,-0.0614 -0.0439,-0.11169 -0.0976,-0.11169 -0.0537,0 -2.35674,-2.4909 -5.11788,-5.53532 -6.90455,-7.61294 -10.02184,-11.04953 -15.21957,-16.77849 l -4.46113,-4.91707 v -2.11474 c 0,-1.16311 -0.0253,-2.0894 -0.0563,-2.05843 -0.031,0.031 -0.0884,0.9185 -0.12755,1.97229 l -0.0712,1.91599 -9.74421,-10.7547 c -5.3592,-5.9151 -10.27212,-11.33002 -10.91748,-12.03317 -2.58606,-2.81763 -3.06101,-3.41342 -3.06101,-3.83978 v -0.24119 z m 38.04352,52.82825 c 0.0925,-2.30799 0.0888,-5.40316 -0.006,-4.79558 -0.0393,0.25253 -0.0701,1.8366 -0.0686,3.52016 0.003,2.82598 0.008,2.92391 0.0743,1.27542 z"
     id="path31" />
  <text
     xml:space="preserve"
     style="font-size:25.1001px;fill:#ff6600;stroke-width:2.09168"
     x="381.94748"
     y="355.99069"
     id="text31"><tspan
       sodipodi:role="line"
       id="tspan31"
       style="fill:#ff6600;stroke-width:2.09168"
       x="381.94748"
       y="355.99069">Benmi</tspan></text>
  <path
     sodipodi:type="spiral"
     style="fill:#ff6600;fill-rule:evenodd;stroke:#000000;stroke-width:2.09168"
     id="path35"
     sodipodi:cx="8.9756603"
     sodipodi:cy="32.244083"
     sodipodi:expansion="1"
     sodipodi:revolution="3"
     sodipodi:radius="14.599227"
     sodipodi:argument="-19.200895"
     sodipodi:t0="0"
     d="m 8.9756603,32.244083 c 0.6872672,-0.251915 0.6786508,0.802136 0.4187006,1.142284 -0.704449,0.921777 -2.0971587,0.476872 -2.7032669,-0.304882 -1.0841854,-1.398376 -0.3636529,-3.390602 1.0284646,-4.264251 2.0429884,-1.282115 4.7045744,-0.255332 5.8252344,1.752047 1.493664,2.67552 0.149593,6.026226 -2.47563,7.386218 -3.3035747,1.711412 -7.3516314,0.04529 -8.9472017,-3.199212 -1.93244949,-3.929528 0.058161,-8.679172 3.922795,-10.508186 4.5543367,-2.155429 10.0080457,0.161076 12.0691697,4.646378 2.379649,5.178458 -0.263634,11.337809 -5.36996,13.630153 -5.8021337,2.604707 -12.66819797,-0.365941 -15.1911374,-6.093543 -2.8303568,-6.425504 0.4680676,-13.99904 6.8171254,-16.752121 7.048657,-3.056441 15.330224,0.570061 18.313104,7.540708"
     transform="matrix(2.0916772,0,0,2.0916772,357.56145,322.31958)" />
  <path
     style="fill:#ff6600;stroke-width:0.0487808"
     d="M 14.102463,33.728585 C 13.231756,33.621755 12.303759,33.270782 11.532448,32.756591 10.99918,32.40109 10.140905,31.518151 9.8133877,30.98813 9.4743565,30.439477 9.1542581,29.640014 9.0174218,29.000163 8.8629185,28.2777 8.8636376,27.144917 9.0190616,26.416896 9.3173515,25.019677 9.9475303,23.875635 10.996915,22.82625 c 1.046461,-1.04646 2.191179,-1.669478 3.627606,-1.97434 0.620911,-0.131779 1.742023,-0.177832 2.38118,-0.09781 1.349418,0.16894 2.775126,0.726729 3.82998,1.49843 0.468829,0.342982 2.149315,2.211617 2.443816,2.71743 0.126824,0.217821 0.224719,0.41516 0.217545,0.438531 -0.0072,0.02337 -0.571916,0.24897 -1.254984,0.501333 -1.114064,0.411598 -1.246963,0.450394 -1.290721,0.376786 -0.633293,-1.06529 -1.460767,-1.855964 -2.439038,-2.330568 -0.828949,-0.40216 -1.519921,-0.566038 -2.382353,-0.565023 -1.255414,0.0015 -2.32659,0.418027 -3.192457,1.241453 -0.920366,0.875253 -1.387139,1.930588 -1.381415,3.12326 0.0048,0.996074 0.338375,1.821008 1.001289,2.476053 0.603689,0.596522 1.375826,0.914734 2.219593,0.914734 0.712222,0 1.221184,-0.206652 1.700973,-0.690638 0.56482,-0.569764 0.737301,-1.430053 0.443923,-2.214176 -0.05611,-0.149967 -0.09439,-0.279313 -0.08506,-0.287436 0.04013,-0.03495 2.053222,-0.758992 2.110253,-0.758992 0.08751,0 0.349856,0.588034 0.467409,1.04766 0.13355,0.522176 0.132822,1.315808 -0.0017,1.877062 -0.117377,0.489644 -0.448906,1.211647 -0.748021,1.629037 -0.295913,0.412922 -0.85858,0.944954 -1.312979,1.241491 -0.885318,0.577753 -2.172618,0.870158 -3.249271,0.738061 z"
     id="path36"
     transform="matrix(2.0916772,0,0,2.0916772,344.09301,330.2782)" />
</svg>
